<svg xmlns="http://www.w3.org/2000/svg" width="960" height="560" viewBox="0 0 960 560" role="img" aria-labelledby="title desc">
  <title id="title">MarketHawk dashboard placeholder</title>
  <desc id="desc">A placeholder dashboard showing scanner results, watchlist, review queue, and outcomes panels.</desc>
  <rect width="960" height="560" fill="#f7f8f3"/>
  <rect x="36" y="34" width="888" height="492" rx="8" fill="#ffffff" stroke="#d6ddd7" stroke-width="2"/>
  <rect x="64" y="66" width="832" height="56" rx="6" fill="#114c43"/>
  <text x="88" y="102" font-family="Arial, sans-serif" font-size="24" font-weight="700" fill="#ffffff">MarketHawk Demo Dashboard</text>
  <rect x="64" y="152" width="382" height="158" rx="8" fill="#eef2ee" stroke="#bad6c8"/>
  <text x="88" y="190" font-family="Arial, sans-serif" font-size="22" font-weight="700" fill="#114c43">Scanner Results</text>
  <rect x="88" y="214" width="310" height="18" rx="4" fill="#315f9b" opacity=".75"/>
  <rect x="88" y="248" width="260" height="18" rx="4" fill="#315f9b" opacity=".45"/>
  <rect x="88" y="282" width="330" height="18" rx="4" fill="#315f9b" opacity=".25"/>
  <rect x="514" y="152" width="382" height="158" rx="8" fill="#f6efe3" stroke="#e1c799"/>
  <text x="538" y="190" font-family="Arial, sans-serif" font-size="22" font-weight="700" fill="#6e4a10">Watchlist</text>
  <circle cx="548" cy="226" r="7" fill="#b8832f"/>
  <text x="566" y="232" font-family="Arial, sans-serif" font-size="18" fill="#17211c">NVDA</text>
  <circle cx="548" cy="262" r="7" fill="#b8832f"/>
  <text x="566" y="268" font-family="Arial, sans-serif" font-size="18" fill="#17211c">AMD</text>
  <circle cx="548" cy="298" r="7" fill="#b8832f"/>
  <text x="566" y="304" font-family="Arial, sans-serif" font-size="18" fill="#17211c">MSFT</text>
  <rect x="64" y="346" width="382" height="136" rx="8" fill="#f9faf7" stroke="#d6ddd7"/>
  <text x="88" y="384" font-family="Arial, sans-serif" font-size="22" font-weight="700" fill="#17211c">Review Queue</text>
  <rect x="88" y="408" width="110" height="28" rx="4" fill="#114c43"/>
  <text x="116" y="428" font-family="Arial, sans-serif" font-size="14" font-weight="700" fill="#ffffff">Confirm</text>
  <rect x="214" y="408" width="110" height="28" rx="4" fill="#9d3f3f"/>
  <text x="247" y="428" font-family="Arial, sans-serif" font-size="14" font-weight="700" fill="#ffffff">Reject</text>
  <rect x="514" y="346" width="382" height="136" rx="8" fill="#eef2ee" stroke="#bad6c8"/>
  <text x="538" y="384" font-family="Arial, sans-serif" font-size="22" font-weight="700" fill="#114c43">Outcomes</text>
  <polyline points="548,446 604,414 660,430 716,394 772,406 836,372" fill="none" stroke="#315f9b" stroke-width="5" stroke-linecap="round"/>
</svg>
